<?xml version="1.0" encoding="utf-8"?>
<!-- Generator: Adobe Illustrator 16.0.0, SVG Export Plug-In . SVG Version: 6.00 Build 0)  -->
<!DOCTYPE svg PUBLIC "-//W3C//DTD SVG 1.1//EN" "http://www.w3.org/Graphics/SVG/1.1/DTD/svg11.dtd">
<svg version="1.1" xmlns="http://www.w3.org/2000/svg" xmlns:xlink="http://www.w3.org/1999/xlink" x="0px" y="0px" width="112px"
	 height="112px" viewBox="0 0 112 112" enable-background="new 0 0 112 112" xml:space="preserve">
<g id="Layer_2">
</g>
<g id="Layer_1">
	<path fill="#17B188" d="M46.331,45.673c2.201-0.439,9.976-4.841,14.816-11.735c4.84-6.895,8.947-8.949,8.947-8.949
		C84.766,45.671,104.86,49.34,97.379,45.086s-17.456-13.789-22.005-18.63c-4.548-4.84-5.134-3.814-5.134-3.814
		c-3.375,0.44-3.08,1.32-7.628,5.574c-4.548,4.255-14.081,25.964-29.483,9.241c-15.402-16.722-22.15,1.907-22.15,1.907
		c11.589-15.11,22.297,1.467,22.297,1.467c0.733,19.803-0.733,30.512-0.733,30.512c-6.748-6.016-18.63-7.775-24.498-7.775
		c-5.867,0-4.987,6.747-4.987,7.775c0,2.179,5.632,19.706,18.189,19.362c10.708-0.294,12.469-15.842,12.469-15.842
		c11.735,6.307,12.468,18.605,26.258,17.309c13.786-1.297,12.908-8.654,12.908-8.654c-11.297,12.47-23.471,1.468-24.498,0
		c-1.027-1.467-14.229-11.147-14.229-11.147c2.054-5.134,0.88-29.925,0.88-29.925C38.703,46.553,44.13,46.112,46.331,45.673z
		 M15.623,86.144C13.32,84.678,6.83,76.095,6.83,76.095C1.387,64.789,9.342,65.628,9.342,65.628c13.608,1.047,22.4,8.164,22.4,8.164
		C26.509,94.937,17.925,87.609,15.623,86.144z"/>
	<path fill="#FFFFFF" d="M27.85,84.064c0,0-6.438,14.874-21.02-7.97C6.83,76.095,23.023,91.81,27.85,84.064z"/>
	<path fill="#FFFFFF" d="M4.178,65.317c0,0,0.682-2.813,9-1.407c8.318,1.407,13.375,2.712,19.364,7.434
		C32.542,71.344,12.704,54.51,4.178,65.317z"/>
	<path fill="#FFFFFF" d="M11.461,38.395c0,0,6.806-15.95,20.236-2.269c0,0,4.54,4.433,5.005,4.774
		c0.465,0.341,6.927,6.02,14.301,0.65S65.379,22.795,70.73,22.74c0,0,1.811,0.308,6.515,5.805S95.199,44.484,96.42,44.667
		c0,0,0.732-0.611-0.794-1.771c-1.527-1.16-19.05-14.288-23.386-20.516c0,0-2.746-3.427-6.839,2.015l-9.707,11.051
		c0,0-11.561,15.815-23.152,0.489c0,0-7.805-10.38-16.842-4.702C15.701,31.234,9.786,35.542,11.461,38.395z"/>
	<path fill="#FFFFFF" d="M46.287,70.348c0,0,2.199-10.258,6.106-6.961c3.908,3.297,2.688,5.8,5.374,7.266
		c0,0,0.611-8.55,5.679-4.763c0,0,1.465,3.786-2.748,3.725c0,0-0.793-0.978,1.1-1.648c1.892-0.671-0.55-2.303-1.161-1.273
		s-2.198,2.982-0.183,7.074c0,0,0.554,1.467,3.238-0.61c2.685-2.076,2.195-0.244,2.195-0.244s2.441-5.891,7.327-4.411
		c0,0-1.894-3.711-3.48-3.711s-1.893,4.275-1.893,4.275s-0.915,0.364-0.977-1.527s2.015-9.465,7.144-1.466
		c4.788,7.469,5,4.531,5.95,7.475c0.067,0.209,0.139,0.448,0.217,0.723c0,0-0.061,1.694-1.954,0.412s-2.381-3.418-3.847-3.785
		c-1.465-0.366-3.906-1.588-6.35,2.32c-2.442,3.908,3.603,1.771,3.785,1.526c0.184-0.244,5.251-0.062,5.251-0.062
		s-1.527,2.443-6.411,2.81c-4.885,0.366-4.946-0.854-5.129-3.235c-0.184-2.382-2.441,5.556-7.021-0.307c0,0-0.855,2.505-2.504-0.121
		c-1.648-2.626-1.525-6.351-5.8-3.298c0,0-2.687,2.505-2.931,3.359c-0.245,0.854-2.26,3.906,1.893,1.403s4.744-0.428,4.723-0.428
		c-0.021,0-3.685,4.215-7.959,3.054c-4.274-1.16,1.527-7.023,1.527-7.267s4.213-4.58,5.862-3.114c0,0-1.71-3.54-3.053-2.625
		C48.913,65.829,47.507,71.264,46.287,70.348z"/>
	<path fill="#FFFFFF" d="M103.378,68.761c0,0-1.159-2.32-2.382,1.099c-1.222,3.419-1.594,3.985-4.4,4.03
		c-2.806,0.044-0.79-3.591-0.79-3.591s6.227,1.332,5.067-4.47c0,0-4.101-2.494-6.228,2.748c0,0-4.381-4.601-3.724,1.722
		c0.656,6.322-1.709,5.544-2.748,2.063s-2.137-7.326-4.029-2.319c0,0-0.979,3.54-0.856,4.334c0.123,0.795-2.321-8.366-3.847-7.389
		c0,0,0.609,8.732,3.664,10.503c0,0,1.162,0.609,1.771-2.076c0.609-2.687,1.037-3.785,1.037-3.785s1.893,6.04,3.969,5.92
		s2.749-2.258,3.054-8.18l0.854,0.611c0,0-1.525,6.304,3.176,6.113s5.25-3.121,5.25-3.121s2.014,5.493,5.801,4.272
		C111.804,76.025,103.561,77.064,103.378,68.761z M97.271,67.904c2.626-1.465,2.076-0.427,1.466,0.307
		c-0.611,0.732-2.142,0.732-2.142,0.732C96.47,68.517,97.271,67.904,97.271,67.904z"/>
	<path fill="#FFFFFF" d="M69.184,36.852c-2.293,0-4.153,1.859-4.153,4.152c0,2.293,1.86,4.152,4.153,4.152s4.153-1.859,4.153-4.152
		C73.337,38.71,71.477,36.852,69.184,36.852z"/>
	<circle fill="#FFFFFF" cx="61.765" cy="46.473" r="2.29"/>
	<circle cx="57.826" cy="42.809" r="0.916"/>
	<circle cx="57.826" cy="55.998" r="0.916"/>
	<circle fill="#FFFFFF" cx="82.739" cy="42.809" r="0.916"/>
	<circle cx="82.739" cy="55.998" r="0.916"/>
	<rect x="81.823" y="42.503" fill="#FFFFFF" width="1.831" height="13.281"/>
	<rect x="81.823" y="43.969" fill="#FFFFFF" width="1.831" height="13.28"/>
	<path fill="#FFFFFF" d="M61.765,48.762c0,0,0.094,1.068-0.396,1.191c-0.489,0.122-1.16,0.389-1.465-1.191
		c-0.305-1.58-1.245,2.595,0.935,2.779c0,0-2.412,3.052-1.398,4.243l2.822-4.06l1.793,2.687c0,0,0.548-1.526-1.16-3.48l2.992-2.524
		l2.747,0.737c0,0,0.793,1.542-1.16,3.557s-0.854,3.664-0.671,3.847c0.183,0.183,0.183,0.183,0.183,0.183l1.808-4.579
		c0,0,2.161,1.465,2.527,3.847c0.366,2.381,3.054-0.611,1.405-1.649c-1.648-1.037-3.114-3.206-2.931-5.206
		c0.183-1.999,2.931-1.633,2.931-1.633l3.54,3.908c0,0-2.38,4.397-1.525,4.824s2.748-2.793,2.748-4.053s2.198,2.769,2.198,3.594
		c0,0.825,1.955-0.397-0.55-4.183c0,0,1.587-2.26,2.137-2.198S80.2,48.04,78.83,50.259c-1.369,2.219-5.006-5.13-5.067-3.786
		s0.307-2.389-4.151,0.786l-0.123-5.746l-1.109-0.055l0.072,6.106c0,0-3.236-0.208-4.396,1.579l-1.793,0.558v-0.996L61.765,48.762z"
		/>
	<circle fill="#FFFFFF" cx="77.885" cy="45.74" r="2.29"/>
	<circle fill="#FFFFFF" cx="82.739" cy="57.463" r="0.916"/>
	<circle fill="#FFFFFF" cx="57.826" cy="42.809" r="0.916"/>
	<rect x="56.911" y="43.053" fill="#FFFFFF" width="1.832" height="14.196"/>
	<circle fill="#FFFFFF" cx="57.826" cy="57.463" r="0.916"/>
</g>
</svg>
